<svg width="265" height="263" viewBox="0 0 265 263" fill="none" xmlns="http://www.w3.org/2000/svg">
<rect width="265" height="263" fill="#1E1E1E"/>
<rect width="265" height="263" fill="#D9D9D9"/>
<path d="M83 191C74.6667 196.667 57.4 210 55 218V227L91 244L147 227L114 198L83 191Z" stroke="black"/>
<path d="M33.6761 37.9119V36.8182H41.3125V37.9119H38.1108V47H36.8778V37.9119H33.6761ZM43.2154 47V36.8182H49.3603V37.9119H44.4483V41.3523H49.0421V42.446H44.4483V45.9062H49.4398V47H43.2154ZM57.1507 39.3636C57.0911 38.8598 56.8491 38.4688 56.4249 38.1903C56.0007 37.9119 55.4803 37.7727 54.8638 37.7727C54.4131 37.7727 54.0186 37.8456 53.6806 37.9915C53.3458 38.1373 53.084 38.3378 52.8951 38.593C52.7095 38.8482 52.6167 39.1383 52.6167 39.4631C52.6167 39.7348 52.6813 39.9685 52.8105 40.1641C52.9431 40.3563 53.1122 40.517 53.3176 40.6463C53.5231 40.7723 53.7386 40.8767 53.964 40.9595C54.1893 41.0391 54.3965 41.1037 54.5854 41.1534L55.6195 41.4318C55.8846 41.5014 56.1796 41.5975 56.5044 41.7202C56.8326 41.8428 57.1458 42.0102 57.4441 42.2223C57.7457 42.4311 57.9943 42.6996 58.1898 43.0277C58.3854 43.3558 58.4831 43.7585 58.4831 44.2358C58.4831 44.786 58.339 45.2831 58.0506 45.7273C57.7656 46.1714 57.348 46.5244 56.7978 46.7862C56.2509 47.0481 55.5864 47.179 54.8042 47.179C54.075 47.179 53.4436 47.0613 52.91 46.826C52.3797 46.5907 51.9621 46.2625 51.6571 45.8416C51.3555 45.4207 51.1848 44.9318 51.1451 44.375H52.4178C52.4509 44.7595 52.5802 45.0777 52.8056 45.3295C53.0343 45.5781 53.3226 45.7637 53.6706 45.8864C54.022 46.0057 54.3998 46.0653 54.8042 46.0653C55.2748 46.0653 55.6974 45.9891 56.0719 45.8366C56.4464 45.6809 56.7431 45.4654 56.9618 45.1903C57.1806 44.9119 57.29 44.5871 57.29 44.2159C57.29 43.8778 57.1955 43.6027 57.0066 43.3906C56.8176 43.1785 56.5691 43.0062 56.2608 42.8736C55.9526 42.741 55.6195 42.625 55.2615 42.5256L54.0087 42.1676C53.2132 41.9389 52.5835 41.6125 52.1195 41.1882C51.6555 40.764 51.4235 40.2088 51.4235 39.5227C51.4235 38.9527 51.5776 38.4555 51.8858 38.0312C52.1974 37.6037 52.615 37.2723 53.1387 37.0369C53.6657 36.7983 54.254 36.679 54.9036 36.679C55.5598 36.679 56.1432 36.7966 56.6536 37.032C57.164 37.264 57.5684 37.5821 57.8667 37.9865C58.1683 38.3909 58.3274 38.8499 58.3439 39.3636H57.1507ZM59.9535 37.9119V36.8182H67.5898V37.9119H64.3881V47H63.1552V37.9119H59.9535ZM69.4927 47V36.8182H75.6376V37.9119H70.7257V41.3523H75.3194V42.446H70.7257V45.9062H75.7172V47H69.4927Z" fill="#C50C0C"/>
<path d="M33.6761 37.9119H32.6761V38.9119H33.6761V37.9119ZM33.6761 36.8182V35.8182H32.6761V36.8182H33.6761ZM41.3125 36.8182H42.3125V35.8182H41.3125V36.8182ZM41.3125 37.9119V38.9119H42.3125V37.9119H41.3125ZM38.1108 37.9119V36.9119H37.1108V37.9119H38.1108ZM38.1108 47V48H39.1108V47H38.1108ZM36.8778 47H35.8778V48H36.8778V47ZM36.8778 37.9119H37.8778V36.9119H36.8778V37.9119ZM34.6761 37.9119V36.8182H32.6761V37.9119H34.6761ZM33.6761 37.8182H41.3125V35.8182H33.6761V37.8182ZM40.3125 36.8182V37.9119H42.3125V36.8182H40.3125ZM41.3125 36.9119H38.1108V38.9119H41.3125V36.9119ZM37.1108 37.9119V47H39.1108V37.9119H37.1108ZM38.1108 46H36.8778V48H38.1108V46ZM37.8778 47V37.9119H35.8778V47H37.8778ZM36.8778 36.9119H33.6761V38.9119H36.8778V36.9119ZM43.2154 47H42.2154V48H43.2154V47ZM43.2154 36.8182V35.8182H42.2154V36.8182H43.2154ZM49.3603 36.8182H50.3603V35.8182H49.3603V36.8182ZM49.3603 37.9119V38.9119H50.3603V37.9119H49.3603ZM44.4483 37.9119V36.9119H43.4483V37.9119H44.4483ZM44.4483 41.3523H43.4483V42.3523H44.4483V41.3523ZM49.0421 41.3523H50.0421V40.3523H49.0421V41.3523ZM49.0421 42.446V43.446H50.0421V42.446H49.0421ZM44.4483 42.446V41.446H43.4483V42.446H44.4483ZM44.4483 45.9062H43.4483V46.9062H44.4483V45.9062ZM49.4398 45.9062H50.4398V44.9062H49.4398V45.9062ZM49.4398 47V48H50.4398V47H49.4398ZM44.2154 47V36.8182H42.2154V47H44.2154ZM43.2154 37.8182H49.3603V35.8182H43.2154V37.8182ZM48.3603 36.8182V37.9119H50.3603V36.8182H48.3603ZM49.3603 36.9119H44.4483V38.9119H49.3603V36.9119ZM43.4483 37.9119V41.3523H45.4483V37.9119H43.4483ZM44.4483 42.3523H49.0421V40.3523H44.4483V42.3523ZM48.0421 41.3523V42.446H50.0421V41.3523H48.0421ZM49.0421 41.446H44.4483V43.446H49.0421V41.446ZM43.4483 42.446V45.9062H45.4483V42.446H43.4483ZM44.4483 46.9062H49.4398V44.9062H44.4483V46.9062ZM48.4398 45.9062V47H50.4398V45.9062H48.4398ZM49.4398 46H43.2154V48H49.4398V46ZM57.1507 39.3636L56.1577 39.4812L56.2622 40.3636H57.1507V39.3636ZM56.4249 38.1903L55.8762 39.0264L55.8762 39.0264L56.4249 38.1903ZM53.6806 37.9915L53.2845 37.0733L53.2812 37.0747L53.6806 37.9915ZM52.8951 38.593L52.0913 37.998L52.0863 38.0049L52.8951 38.593ZM52.8105 40.1641L51.9763 40.7155L51.9818 40.7237L51.9873 40.7318L52.8105 40.1641ZM53.3176 40.6463L52.7852 41.4928L52.7951 41.4989L53.3176 40.6463ZM53.964 40.9595L53.6189 41.8982L53.6311 41.9025L53.964 40.9595ZM54.5854 41.1534L54.8454 40.1878L54.8399 40.1863L54.5854 41.1534ZM55.6195 41.4318L55.3595 42.3975L55.3656 42.399L55.6195 41.4318ZM56.5044 41.7202L56.1512 42.6557L56.1544 42.6569L56.5044 41.7202ZM57.4441 42.2223L56.8645 43.0373L56.8749 43.0445L57.4441 42.2223ZM58.1898 43.0277L59.0488 42.5158L59.0488 42.5158L58.1898 43.0277ZM58.0506 45.7273L57.2119 45.1827L57.209 45.1871L58.0506 45.7273ZM56.7978 46.7862L56.368 45.8833L56.3659 45.8843L56.7978 46.7862ZM52.91 46.826L52.5044 47.74L52.5065 47.741L52.91 46.826ZM51.6571 45.8416L50.8443 46.4241L50.8473 46.4283L51.6571 45.8416ZM51.1451 44.375V43.375H50.0711L50.1476 44.4462L51.1451 44.375ZM52.4178 44.375L53.4141 44.2891L53.3353 43.375H52.4178V44.375ZM52.8056 45.3295L52.0603 45.9964L52.0696 46.0066L52.8056 45.3295ZM53.6706 45.8864L53.3383 46.8296L53.349 46.8332L53.6706 45.8864ZM56.0719 45.8366L56.449 46.7629L56.4559 46.76L56.0719 45.8366ZM56.9618 45.1903L57.7445 45.8127L57.7481 45.8082L56.9618 45.1903ZM57.0066 43.3906L57.7533 42.7255L57.7533 42.7255L57.0066 43.3906ZM56.2608 42.8736L55.8657 43.7922L55.8657 43.7922L56.2608 42.8736ZM55.2615 42.5256L54.9868 43.4871L54.9939 43.4891L55.2615 42.5256ZM54.0087 42.1676L53.7324 43.1287L53.734 43.1291L54.0087 42.1676ZM52.1195 41.1882L51.4447 41.9262L51.4447 41.9262L52.1195 41.1882ZM51.8858 38.0312L51.0776 37.4423L51.0768 37.4435L51.8858 38.0312ZM53.1387 37.0369L53.5486 37.9491L53.5512 37.9479L53.1387 37.0369ZM56.6536 37.032L56.2349 37.9401L56.2398 37.9423L56.6536 37.032ZM57.8667 37.9865L57.0619 38.5802L57.0651 38.5844L57.8667 37.9865ZM58.3439 39.3636V40.3636H59.3767L59.3434 39.3314L58.3439 39.3636ZM58.1438 39.246C58.0494 38.4488 57.6447 37.7947 56.9736 37.3543L55.8762 39.0264C56.0536 39.1428 56.1328 39.2709 56.1577 39.4812L58.1438 39.246ZM56.9736 37.3543C56.3542 36.9479 55.633 36.7727 54.8638 36.7727V38.7727C55.3276 38.7727 55.6471 38.876 55.8762 39.0264L56.9736 37.3543ZM54.8638 36.7727C54.3066 36.7727 53.7723 36.8628 53.2845 37.0733L54.0767 38.9097C54.2649 38.8285 54.5195 38.7727 54.8638 38.7727V36.7727ZM53.2812 37.0747C52.8102 37.2799 52.3993 37.582 52.0913 37.9981L53.6988 39.188C53.7687 39.0936 53.8814 38.9947 54.08 38.9083L53.2812 37.0747ZM52.0863 38.0049C51.7726 38.4363 51.6167 38.9335 51.6167 39.4631H53.6167C53.6167 39.343 53.6463 39.2602 53.7038 39.1812L52.0863 38.0049ZM51.6167 39.4631C51.6167 39.8989 51.7225 40.3315 51.9763 40.7155L53.6448 39.6126C53.64 39.6055 53.6167 39.5708 53.6167 39.4631H51.6167ZM51.9873 40.7318C52.2 41.0401 52.4695 41.2942 52.7852 41.4928L53.8501 39.7998C53.7548 39.7399 53.6863 39.6725 53.6338 39.5963L51.9873 40.7318ZM52.7951 41.4989C53.0566 41.6592 53.3314 41.7924 53.6189 41.8981L54.309 40.0209C54.1457 39.9609 53.9897 39.8853 53.8402 39.7937L52.7951 41.4989ZM53.6311 41.9025C53.8768 41.9892 54.1105 42.0625 54.3309 42.1205L54.8399 40.1863C54.6825 40.1449 54.5018 40.0889 54.2968 40.0165L53.6311 41.9025ZM54.3254 42.119L55.3595 42.3974L55.8795 40.4662L54.8454 40.1878L54.3254 42.119ZM55.3656 42.399C55.5897 42.4579 55.8508 42.5423 56.1512 42.6557L56.8577 40.7846C56.5084 40.6528 56.1796 40.545 55.8734 40.4646L55.3656 42.399ZM56.1544 42.6569C56.3974 42.7477 56.6339 42.8733 56.8645 43.0373L58.0236 41.4073C57.6576 41.1471 57.2677 40.9379 56.8545 40.7835L56.1544 42.6569ZM56.8749 43.0445C57.0539 43.1684 57.2054 43.3293 57.3308 43.5396L59.0488 42.5158C58.7831 42.0699 58.4375 41.6938 58.0133 41.4001L56.8749 43.0445ZM57.3308 43.5396C57.4137 43.6787 57.4831 43.8942 57.4831 44.2358H59.4831C59.4831 43.6228 59.3571 43.033 59.0488 42.5158L57.3308 43.5396ZM57.4831 44.2358C57.4831 44.6007 57.3907 44.9073 57.2119 45.1827L58.8893 46.2718C59.2872 45.659 59.4831 44.9713 59.4831 44.2358H57.4831ZM57.209 45.1871C57.0395 45.4512 56.7763 45.6889 56.368 45.8833L57.2275 47.6892C57.9196 47.3598 58.4916 46.8916 58.8922 46.2674L57.209 45.1871ZM56.3659 45.8843C55.9871 46.0657 55.4787 46.179 54.8042 46.179V48.179C55.694 48.179 56.5147 48.0305 57.2296 47.6882L56.3659 45.8843ZM54.8042 46.179C54.1802 46.179 53.6924 46.0781 53.3135 45.911L52.5065 47.741C53.1948 48.0445 53.9697 48.179 54.8042 48.179V46.179ZM53.3156 45.9119C52.9274 45.7397 52.6567 45.5169 52.467 45.255L50.8473 46.4283C51.2674 47.0082 51.832 47.4417 52.5044 47.74L53.3156 45.9119ZM52.47 45.2592C52.2843 45.0001 52.1702 44.6913 52.1425 44.3038L50.1476 44.4462C50.1995 45.1723 50.4267 45.8413 50.8443 46.4241L52.47 45.2592ZM51.1451 45.375H52.4178V43.375H51.1451V45.375ZM51.4215 44.4609C51.4705 45.0291 51.6706 45.5607 52.0603 45.9963L53.5508 44.6628C53.4898 44.5946 53.4314 44.4898 53.4141 44.2891L51.4215 44.4609ZM52.0696 46.0066C52.4191 46.3864 52.8506 46.6577 53.3383 46.8295L54.003 44.9432C53.7947 44.8698 53.6495 44.7698 53.5415 44.6525L52.0696 46.0066ZM53.349 46.8332C53.8128 46.9908 54.3002 47.0653 54.8042 47.0653V45.0653C54.4994 45.0653 54.2311 45.0206 53.9922 44.9395L53.349 46.8332ZM54.8042 47.0653C55.3832 47.0653 55.9367 46.9714 56.4489 46.7628L55.6949 44.9104C55.458 45.0069 55.1664 45.0653 54.8042 45.0653V47.0653ZM56.4559 46.76C56.9624 46.5493 57.4052 46.2394 57.7445 45.8127L56.1791 44.5679C56.0809 44.6915 55.9305 44.8124 55.6879 44.9133L56.4559 46.76ZM57.7481 45.8082C58.1124 45.3446 58.29 44.7995 58.29 44.2159H56.29C56.29 44.3747 56.2488 44.4793 56.1755 44.5725L57.7481 45.8082ZM58.29 44.2159C58.29 43.6818 58.1354 43.1545 57.7533 42.7255L56.2598 44.0557C56.2639 44.0603 56.2681 44.0657 56.2733 44.0808C56.2794 44.0984 56.29 44.1398 56.29 44.2159H58.29ZM57.7533 42.7255C57.4511 42.3862 57.0744 42.1349 56.6559 41.9549L55.8657 43.7922C56.0637 43.8774 56.1842 43.9708 56.2598 44.0557L57.7533 42.7255ZM56.6559 41.9549C56.3022 41.8028 55.926 41.6723 55.5292 41.5621L54.9939 43.4891C55.3129 43.5777 55.603 43.6792 55.8657 43.7922L56.6559 41.9549ZM55.5363 41.564L54.2834 41.2061L53.734 43.1291L54.9868 43.4871L55.5363 41.564ZM54.285 41.2065C53.5928 41.0075 53.1143 40.7428 52.7943 40.4502L51.4447 41.9262C52.0527 42.4821 52.8337 42.8703 53.7324 43.1287L54.285 41.2065ZM52.7943 40.4502C52.5577 40.2339 52.4235 39.9567 52.4235 39.5227H50.4235C50.4235 40.4609 50.7533 41.2941 51.4447 41.9262L52.7943 40.4502ZM52.4235 39.5227C52.4235 39.1444 52.5217 38.8574 52.6948 38.619L51.0768 37.4435C50.6335 38.0536 50.4235 38.7609 50.4235 39.5227H52.4235ZM52.694 38.6202C52.8945 38.345 53.1696 38.1194 53.5486 37.9491L52.7288 36.1248C52.0604 36.4251 51.5002 36.8624 51.0776 37.4423L52.694 38.6202ZM53.5512 37.9479C53.9335 37.7748 54.3787 37.679 54.9036 37.679V35.679C54.1292 35.679 53.3978 35.8218 52.7262 36.126L53.5512 37.9479ZM54.9036 37.679C55.4393 37.679 55.876 37.7746 56.2349 37.9401L57.0723 36.1238C56.4104 35.8187 55.6803 35.679 54.9036 35.679V37.679ZM56.2398 37.9423C56.6134 38.1121 56.8761 38.3283 57.0619 38.5802L58.6714 37.3929C58.2606 36.836 57.7146 36.4158 57.0674 36.1216L56.2398 37.9423ZM57.0651 38.5844C57.242 38.8216 57.3343 39.0824 57.3444 39.3959L59.3434 39.3314C59.3204 38.6174 59.0945 37.9601 58.6682 37.3886L57.0651 38.5844ZM58.3439 38.3636H57.1507V40.3636H58.3439V38.3636ZM59.9535 37.9119H58.9535V38.9119H59.9535V37.9119ZM59.9535 36.8182V35.8182H58.9535V36.8182H59.9535ZM67.5898 36.8182H68.5898V35.8182H67.5898V36.8182ZM67.5898 37.9119V38.9119H68.5898V37.9119H67.5898ZM64.3881 37.9119V36.9119H63.3881V37.9119H64.3881ZM64.3881 47V48H65.3881V47H64.3881ZM63.1552 47H62.1552V48H63.1552V47ZM63.1552 37.9119H64.1552V36.9119H63.1552V37.9119ZM60.9535 37.9119V36.8182H58.9535V37.9119H60.9535ZM59.9535 37.8182H67.5898V35.8182H59.9535V37.8182ZM66.5898 36.8182V37.9119H68.5898V36.8182H66.5898ZM67.5898 36.9119H64.3881V38.9119H67.5898V36.9119ZM63.3881 37.9119V47H65.3881V37.9119H63.3881ZM64.3881 46H63.1552V48H64.3881V46ZM64.1552 47V37.9119H62.1552V47H64.1552ZM63.1552 36.9119H59.9535V38.9119H63.1552V36.9119ZM69.4927 47H68.4927V48H69.4927V47ZM69.4927 36.8182V35.8182H68.4927V36.8182H69.4927ZM75.6376 36.8182H76.6376V35.8182H75.6376V36.8182ZM75.6376 37.9119V38.9119H76.6376V37.9119H75.6376ZM70.7257 37.9119V36.9119H69.7257V37.9119H70.7257ZM70.7257 41.3523H69.7257V42.3523H70.7257V41.3523ZM75.3194 41.3523H76.3194V40.3523H75.3194V41.3523ZM75.3194 42.446V43.446H76.3194V42.446H75.3194ZM70.7257 42.446V41.446H69.7257V42.446H70.7257ZM70.7257 45.9062H69.7257V46.9062H70.7257V45.9062ZM75.7172 45.9062H76.7172V44.9062H75.7172V45.9062ZM75.7172 47V48H76.7172V47H75.7172ZM70.4927 47V36.8182H68.4927V47H70.4927ZM69.4927 37.8182H75.6376V35.8182H69.4927V37.8182ZM74.6376 36.8182V37.9119H76.6376V36.8182H74.6376ZM75.6376 36.9119H70.7257V38.9119H75.6376V36.9119ZM69.7257 37.9119V41.3523H71.7257V37.9119H69.7257ZM70.7257 42.3523H75.3194V40.3523H70.7257V42.3523ZM74.3194 41.3523V42.446H76.3194V41.3523H74.3194ZM75.3194 41.446H70.7257V43.446H75.3194V41.446ZM69.7257 42.446V45.9062H71.7257V42.446H69.7257ZM70.7257 46.9062H75.7172V44.9062H70.7257V46.9062ZM74.7172 45.9062V47H76.7172V45.9062H74.7172ZM75.7172 46H69.4927V48H75.7172V46Z" fill="black"/>
<line x1="6.63826" y1="155.655" x2="131.638" y2="24.6548" stroke="black"/>
<line x1="132.362" y1="24.6548" x2="257.362" y2="155.655" stroke="black"/>
<line x1="257" y1="156.5" x2="7" y2="156.5" stroke="black"/>
</svg>
